# xmcd
#
# Track frame offsets: 
#        150
#        33355
#        74495
#        103357
#        128637
#        168407
#        188462
#        223600
#
# Disc length: 3371 seconds
#
# Revision: 12
# Processed by: cddbd v1.5.2PL0 Copyright (c) Steve Scherf et al.
# Submitted via: ExactAudioCopy v1.1
#
DISCID=6f0d2908
DTITLE=Quartetto Italiano - Paolo Borciani and Elisa Pegreffi (vn I&II) 
DTITLE=Piero Farulli (vi) Franco Rossi (vc) - Mozart The String Quarte
DTITLE=ts - Quartetto Italiano - CD 5 - No.16,17
DYEAR=1986
DGENRE=Classical
TTITLE0=モーツァルト 弦楽四重奏曲 第16番 変ホ長調 K.428 - 1. Allegro ma non troppo
TTITLE1=モーツァルト 弦楽四重奏曲 第16番 変ホ長調 K.428 - 2. Andante con moto
TTITLE2=モーツァルト 弦楽四重奏曲 第16番 変ホ長調 K.428 - 3. Allegretto
TTITLE3=モーツァルト 弦楽四重奏曲 第16番 変ホ長調 K.428 - 4. Allegro vivace
TTITLE4=モーツァルト 弦楽四重奏曲 第17番 変ロ長調 K.458 「狩」 - 1. Allegro vivace assai
TTITLE5=モーツァルト 弦楽四重奏曲 第17番 変ロ長調 K.458 「狩」 - 2. Moderato
TTITLE6=モーツァルト 弦楽四重奏曲 第17番 変ロ長調 K.458 「狩」 - 3. Adagio
TTITLE7=モーツァルト 弦楽四重奏曲 第17番 変ロ長調 K.458 「狩」 - 4. Allegro assai
EXTD=
EXTT0=
EXTT1=
EXTT2=
EXTT3=
EXTT4=
EXTT5=
EXTT6=
EXTT7=
PLAYORDER=
